<svg viewBox="0 0 120 240" xmlns="http://www.w3.org/2000/svg" aria-hidden="true">
  <defs>
    <linearGradient id="gaia-body" x1="60" y1="4" x2="60" y2="236" gradientUnits="userSpaceOnUse">
      <stop offset="0%" stop-color="#2A3D5C"/>
      <stop offset="40%" stop-color="#101A2A"/>
      <stop offset="100%" stop-color="#04070D"/>
    </linearGradient>
    <linearGradient id="gaia-rim" x1="12" y1="20" x2="108" y2="220" gradientUnits="userSpaceOnUse">
      <stop offset="0%" stop-color="#7EB8FF" stop-opacity="0"/>
      <stop offset="46%" stop-color="#A8D4FF" stop-opacity="0.16"/>
      <stop offset="100%" stop-color="#7EB8FF" stop-opacity="0"/>
    </linearGradient>
  </defs>
  <path fill="url(#gaia-body)" d="M60 8.5C67.2 8.5 71 13.8 71 19.6c0 4.8-2.8 8.8-6.6 10.1 7.8 1.2 14.6 5.4 18.8 11.8 4.8 7.2 6.4 15.8 4.6 24.2-1 4.8-3.4 9-6.8 12.2 5.2 5.4 8.8 12.4 10 19.8 1.6 9.6-.6 19.4-6.2 27-4.2 5.6-10 9.6-16.6 11.4 5.4 6.2 8.4 14 8.4 22.2 0 16.2-13.2 29.4-29.4 29.4S23.4 151.3 23.4 135c0-8.2 3-16 8.4-22.2-6.6-1.8-12.4-5.8-16.6-11.4-5.6-7.6-7.8-17.4-6.2-27 1.2-7.4 4.8-14.4 10-19.8-3.4-3.2-5.8-7.4-6.8-12.2-1.8-8.4-.2-17 4.6-24.2 4.2-6.4 11-10.6 18.8-11.8C51.8 28.4 49 24.4 49 19.6 49 13.8 52.8 8.5 60 8.5z"/>
  <path fill="none" stroke="url(#gaia-rim)" stroke-width="0.55" d="M60 8.5C67.2 8.5 71 13.8 71 19.6c0 4.8-2.8 8.8-6.6 10.1 7.8 1.2 14.6 5.4 18.8 11.8 4.8 7.2 6.4 15.8 4.6 24.2-1 4.8-3.4 9-6.8 12.2 5.2 5.4 8.8 12.4 10 19.8 1.6 9.6-.6 19.4-6.2 27-4.2 5.6-10 9.6-16.6 11.4 5.4 6.2 8.4 14 8.4 22.2 0 16.2-13.2 29.4-29.4 29.4S23.4 151.3 23.4 135c0-8.2 3-16 8.4-22.2-6.6-1.8-12.4-5.8-16.6-11.4-5.6-7.6-7.8-17.4-6.2-27 1.2-7.4 4.8-14.4 10-19.8-3.4-3.2-5.8-7.4-6.8-12.2-1.8-8.4-.2-17 4.6-24.2 4.2-6.4 11-10.6 18.8-11.8C51.8 28.4 49 24.4 49 19.6 49 13.8 52.8 8.5 60 8.5z" opacity="0.65"/>
</svg>
