<svg viewBox="0 0 120 240" xmlns="http://www.w3.org/2000/svg" aria-hidden="true">
  <defs>
    <linearGradient id="gaia-body" x1="60" y1="4" x2="60" y2="236" gradientUnits="userSpaceOnUse">
      <stop offset="0%" stop-color="#C8F5A8" stop-opacity="0.78"/>
      <stop offset="22%" stop-color="#7DD956" stop-opacity="0.62"/>
      <stop offset="55%" stop-color="#5CB82E" stop-opacity="0.5"/>
      <stop offset="100%" stop-color="#162318" stop-opacity="0.82"/>
    </linearGradient>
    <linearGradient id="gaia-sheen" x1="24" y1="20" x2="96" y2="220" gradientUnits="userSpaceOnUse">
      <stop offset="0%" stop-color="#FFFFFF" stop-opacity="0"/>
      <stop offset="42%" stop-color="#FFFFFF" stop-opacity="0.16"/>
      <stop offset="100%" stop-color="#FFFFFF" stop-opacity="0"/>
    </linearGradient>
  </defs>
  <g fill="url(#gaia-body)">
    <ellipse cx="60" cy="22" rx="10" ry="12"/>
    <path d="M54.5 34h11c0 2.8-2.4 5-5.5 5s-5.5-2.2-5.5-5z"/>
    <path d="M48 40c-2 0-4 1.6-4 4v2.5C34 47 24 58 20 74c-2.5 10 0.5 16 7 17.5l5.5-1.5c-1.5-11 1.5-22 9.5-29.5v31c-3.5 2.8-7 8.5-8.5 15-3.5 11-0.5 24 10 31.5 5.5 4.5 13 6.5 20.5 6.5s15-2 20.5-6.5c10.5-7.5 13.5-20.5 10-31.5-1.5-6.5-5-12.2-8.5-15V63.5c8 7.5 11 18.5 9.5 29.5l5.5 1.5c6.5-1.5 9.5-7.5 7-17.5-4-16-14-27-24-28.5V44c0-2.4-2-4-4-4H48z"/>
    <path d="M38 162c5 12 14 19.5 22 21.5 0 0 0 0 0 0 8-2 17-9.5 22-21.5-4.5 7-12.5 11.5-22 11.5S42.5 169 38 162z" opacity="0.82"/>
    <ellipse cx="60" cy="204" rx="22" ry="6.5" opacity="0.28"/>
  </g>
  <path fill="url(#gaia-sheen)" d="M48 40c-2 0-4 1.6-4 4v2.5C34 47 24 58 20 74c-2.5 10 0.5 16 7 17.5l5.5-1.5c-1.5-11 1.5-22 9.5-29.5v31c-3.5 2.8-7 8.5-8.5 15-3.5 11-0.5 24 10 31.5 5.5 4.5 13 6.5 20.5 6.5s15-2 20.5-6.5c10.5-7.5 13.5-20.5 10-31.5-1.5-6.5-5-12.2-8.5-15V63.5c8 7.5 11 18.5 9.5 29.5l5.5 1.5c6.5-1.5 9.5-7.5 7-17.5-4-16-14-27-24-28.5V44c0-2.4-2-4-4-4H48z" opacity="0.45"/>
  <line x1="60" y1="12" x2="60" y2="196" stroke="#7DD956" stroke-opacity="0.06" stroke-width="0.65" stroke-dasharray="2 4"/>
</svg>
