<svg xmlns="http://www.w3.org/2000/svg" width="392" height="440" viewBox="0 0 392 440" fill="none">
  <defs>
    <linearGradient id="bg2" x1="196" y1="0" x2="196" y2="440" gradientUnits="userSpaceOnUse">
      <stop stop-color="#fff"/>
      <stop offset="1" stop-color="#f5f5f7"/>
    </linearGradient>
    <linearGradient id="bw" x1="0" y1="0" x2="1" y2="1"><stop stop-color="#1a2f4a"/><stop offset="1" stop-color="#66CC33"/></linearGradient>
    <linearGradient id="bp" x1="0" y1="0" x2="1" y2="1"><stop stop-color="#3730a3"/><stop offset="1" stop-color="#818cf8"/></linearGradient>
    <linearGradient id="bt" x1="0" y1="0" x2="1" y2="1"><stop stop-color="#0d5c56"/><stop offset="1" stop-color="#2dd4bf"/></linearGradient>
  </defs>
  <rect width="392" height="440" fill="url(#bg2)"/>
  <circle cx="44" cy="52" r="20" fill="#66CC33"/>
  <circle cx="44" cy="52" r="14" fill="#fff" fill-opacity="0.95"/>
  <path d="M44 42c-5.5 0-10 4.5-10 10s4.5 10 10 10" stroke="#66CC33" stroke-width="3" fill="none" stroke-linecap="round"/>
  <text x="24" y="88" font-family="Inter, system-ui, sans-serif" font-size="10" font-weight="600" fill="#4DA626" letter-spacing="0.1em">PRACTITIONER TOOLS</text>
  <text x="24" y="118" font-family="Inter, system-ui, sans-serif" font-size="20" font-weight="700" fill="#1C1C1E">Powerful tools,</text>
  <text x="24" y="142" font-family="Inter, system-ui, sans-serif" font-size="20" font-weight="700" fill="#1C1C1E">complete insights</text>
  <text x="24" y="168" font-family="Inter, system-ui, sans-serif" font-size="12" fill="#636366">Bio-Well, BioPulsar &amp; BioTekna  one portal.</text>
  <rect x="24" y="278" width="344" height="44" rx="10" fill="url(#bw)"/>
  <text x="36" y="298" font-family="Inter, system-ui, sans-serif" font-size="11" font-weight="600" fill="#fff">Bio-Well"</text>
  <text x="36" y="314" font-family="Inter, system-ui, sans-serif" font-size="9" fill="#fff" fill-opacity="0.88">Biofield scans &amp; chakra balance</text>
  <rect x="24" y="330" width="344" height="44" rx="10" fill="url(#bp)"/>
  <text x="36" y="350" font-family="Inter, system-ui, sans-serif" font-size="11" font-weight="600" fill="#fff">BioPulsar</text>
  <text x="36" y="366" font-family="Inter, system-ui, sans-serif" font-size="9" fill="#fff" fill-opacity="0.88">Aura &amp; energy mapping</text>
  <rect x="24" y="382" width="344" height="44" rx="10" fill="url(#bt)"/>
  <text x="36" y="402" font-family="Inter, system-ui, sans-serif" font-size="11" font-weight="600" fill="#fff">BioTekna</text>
  <text x="36" y="418" font-family="Inter, system-ui, sans-serif" font-size="9" fill="#fff" fill-opacity="0.88">Clinical-grade wellness data</text>
</svg>
