<svg xmlns="http://www.w3.org/2000/svg" width="392" height="440" viewBox="0 0 392 440" fill="none">
  <defs>
    <linearGradient id="bg3" x1="196" y1="0" x2="196" y2="440" gradientUnits="userSpaceOnUse">
      <stop stop-color="#f4fbef"/>
      <stop offset="0.55" stop-color="#fff"/>
      <stop offset="1" stop-color="#f5f5f7"/>
    </linearGradient>
    <radialGradient id="glow3" cx="0.5" cy="0" r="0.55">
      <stop stop-color="#66CC33" stop-opacity="0.2"/>
      <stop offset="1" stop-color="#66CC33" stop-opacity="0"/>
    </radialGradient>
  </defs>
  <rect width="392" height="440" fill="url(#bg3)"/>
  <rect width="392" height="200" fill="url(#glow3)"/>
  <circle cx="44" cy="52" r="20" fill="#66CC33"/>
  <circle cx="44" cy="52" r="14" fill="#fff" fill-opacity="0.95"/>
  <path d="M44 42c-5.5 0-10 4.5-10 10s4.5 10 10 10" stroke="#66CC33" stroke-width="3" fill="none" stroke-linecap="round"/>
  <text x="24" y="88" font-family="Inter, system-ui, sans-serif" font-size="10" font-weight="600" fill="#4DA626" letter-spacing="0.1em">GAIA ACADEMY</text>
  <text x="24" y="118" font-family="Inter, system-ui, sans-serif" font-size="20" font-weight="700" fill="#1C1C1E">Become a</text>
  <text x="24" y="142" font-family="Inter, system-ui, sans-serif" font-size="20" font-weight="700" fill="#1C1C1E">Gaia Healer</text>
  <text x="24" y="168" font-family="Inter, system-ui, sans-serif" font-size="12" fill="#636366">BIO-WELL Orientation ’ Advanced L2</text>
  <rect x="24" y="330" width="344" height="72" rx="14" fill="#fff" stroke="#000" stroke-opacity="0.06"/>
  <rect x="40" y="358" width="72" height="24" rx="12" fill="#66CC33"/>
  <text x="76" y="374" text-anchor="middle" font-family="Inter, system-ui, sans-serif" font-size="9" font-weight="600" fill="#fff">Orientation</text>
  <rect x="120" y="358" width="52" height="24" rx="12" fill="#66CC33"/>
  <text x="146" y="374" text-anchor="middle" font-family="Inter, system-ui, sans-serif" font-size="9" font-weight="600" fill="#fff">Basic</text>
  <rect x="180" y="358" width="58" height="24" rx="12" fill="#fff" stroke="#E8F7DC" stroke-width="2"/>
  <text x="209" y="374" text-anchor="middle" font-family="Inter, system-ui, sans-serif" font-size="9" font-weight="600" fill="#4DA626">Adv. L1</text>
  <rect x="246" y="358" width="58" height="24" rx="12" fill="#EFEFF0"/>
  <text x="275" y="374" text-anchor="middle" font-family="Inter, system-ui, sans-serif" font-size="9" font-weight="600" fill="#AEAEB2">Adv. L2</text>
</svg>
